<svg width="581" height="632" viewBox="0 0 581 632" fill="none" xmlns="http://www.w3.org/2000/svg">
<rect width="581" height="632" fill="#E5E5E5"/>
<g clip-path="url(#clip0_0:1)">
<rect width="581" height="632" fill="white"/>
<path d="M581 159.78V160.737C580.979 163.139 580.911 165.53 580.797 167.91C578.759 208.648 561.472 247.051 532.48 275.249C503.489 303.446 464.987 319.303 424.865 319.57C384.744 319.837 346.041 304.493 316.689 276.684C287.337 248.874 269.558 210.705 266.996 169.997C266.782 166.617 266.675 163.211 266.675 159.78C266.619 126.687 276.721 94.4006 295.574 67.4228C297.081 65.2489 298.649 63.1149 300.278 61.0208C301.4 59.5643 302.555 58.1404 303.72 56.7274C330.251 24.774 368.043 4.66498 408.99 0.714696C449.936 -3.23559 490.774 9.28751 522.743 35.5973C524.635 37.1516 526.496 38.7602 528.313 40.4015C529.767 41.7167 531.196 43.0609 532.6 44.4341C560.254 71.3264 577.275 107.575 580.455 146.346C580.818 150.78 581 155.258 581 159.78Z" fill="#63A1FF"/>
<path d="M300.278 61.0208C300.355 61.0537 300.427 61.0976 300.492 61.1512C301.336 61.8577 300.278 63.2164 300.406 64.336C300.556 65.7707 302.437 66.0859 303.859 66.2272C305.281 66.3794 307.078 67.5424 306.404 68.825C302.833 70.075 299.219 68.8468 295.574 67.4229C276.721 94.4007 266.619 126.687 266.675 159.78C266.675 163.215 266.782 166.621 266.996 169.997C267.295 170.219 267.622 170.398 267.969 170.53C269.038 170.943 270.278 170.867 271.262 171.454C272.042 171.921 272.566 172.747 273.346 173.182C275.581 174.421 278.681 172.041 280.766 173.519C281.305 174.018 281.815 174.548 282.295 175.106C284.219 176.802 287.384 175.66 289.608 176.932C291.041 177.747 291.778 179.378 292.548 180.856C294.462 184.551 297.562 188.182 301.657 188.475C302.948 188.415 304.243 188.459 305.527 188.606C306.789 188.899 308.029 190.019 307.826 191.312C307.473 193.54 308.553 195.975 308.264 198.203C307.74 202.279 302.063 204.062 301.582 208.138C301.581 209.035 301.531 209.931 301.433 210.823C301.176 211.888 300.385 212.758 300.107 213.823C299.572 215.834 300.994 217.844 302.544 219.192C304.105 220.551 305.966 221.725 306.821 223.616C307.719 225.627 307.281 227.964 307.569 230.149C308.211 234.92 312.263 238.453 316.432 240.735C317.769 241.303 318.955 242.182 319.896 243.301C320.966 244.877 320.859 246.953 321.222 248.833C322.099 253.431 325.905 257.224 326.012 261.909C326.087 265.246 324.269 268.268 323.179 271.409C322.057 274.702 321.723 278.219 322.206 281.67C328.302 286.926 334.782 291.704 341.589 295.963C341.959 295.406 342.231 294.788 342.391 294.137C342.52 293.416 342.431 292.673 342.135 292.005C341.839 291.337 341.35 290.777 340.734 290.398C341.883 289.956 342.928 289.275 343.802 288.398C344.232 287.949 344.515 287.376 344.615 286.758C344.714 286.14 344.625 285.506 344.358 284.941C346.24 285.18 348.474 285.3 349.715 283.833C350.709 282.659 350.645 280.898 350.249 279.409C349.854 277.909 349.191 276.463 349.18 274.909C353.54 275.125 357.909 274.975 362.245 274.463C361.617 272.313 360.191 270.496 358.268 269.398C360.235 269.061 362.02 266.67 362.64 264.746C363.177 262.783 363.206 260.713 362.726 258.735C362.577 258.227 362.555 257.689 362.662 257.17C362.978 256.481 363.534 255.935 364.223 255.637C367.473 253.735 370.723 251.837 373.973 249.942C374.553 249.644 375.081 249.251 375.534 248.779C376.55 247.55 376.4 245.714 375.876 244.203C375.352 242.692 374.518 241.268 374.315 239.681C373.717 234.931 378.72 231.518 380.409 227.04C380.984 225.252 381.294 223.388 381.329 221.507C381.468 219.486 381.479 217.149 379.96 215.855C378.496 214.605 376.218 214.888 374.69 213.725C373.289 212.66 372.808 210.605 371.279 209.747C369.889 208.964 368.157 209.464 366.607 209.095C363.891 208.453 362.181 205.269 359.401 204.975C357.84 204.801 356.065 205.584 354.782 204.66C353.649 203.834 353.606 202.193 353.392 200.801C353.013 198.634 351.99 196.637 350.461 195.079C348.932 193.52 346.97 192.475 344.839 192.084C343.225 191.823 341.472 191.921 340.092 191.019C338.703 190.106 338.072 188.399 336.971 187.128C335.217 185.095 332.437 184.367 329.839 183.747C326.311 182.91 322.787 182.07 319.266 181.225C317.395 180.769 314.978 180.53 313.963 182.204C313.662 182.84 313.453 183.517 313.343 184.215C312.961 185.469 312.199 186.569 311.166 187.357C310.133 188.146 308.882 188.583 307.591 188.606C306.707 187.071 305.274 185.942 303.592 185.454C302.493 185.266 301.407 185.005 300.342 184.671C299.786 184.394 299.291 184.004 298.888 183.526C298.485 183.048 298.182 182.491 297.998 181.89C297.813 181.289 297.752 180.655 297.817 180.029C297.882 179.403 298.072 178.796 298.375 178.247C298.981 177.144 299.214 175.869 299.038 174.618C298.863 173.367 298.288 172.21 297.402 171.323C295.606 169.682 293.008 169.28 290.591 169.443C289.961 168.041 291.019 166.465 292.152 165.443C293.296 164.432 294.676 163.432 294.922 161.911C295.317 159.519 292.313 157.704 290.036 158.411C287.758 159.128 286.304 161.378 285.342 163.595C284.875 164.904 284.239 166.143 283.45 167.28C283.045 167.843 282.496 168.28 281.862 168.545C281.228 168.81 280.534 168.891 279.857 168.78C277.976 168.291 277.259 166.019 276.842 164.106C276.174 161.549 275.836 158.915 275.837 156.269C275.854 153.598 276.898 151.039 278.746 149.139C281.857 146.226 286.646 146.509 290.848 146.976C290.398 146.366 290.182 145.61 290.241 144.849C290.3 144.089 290.63 143.376 291.169 142.846C291.731 142.338 292.407 141.978 293.137 141.796C293.867 141.614 294.63 141.616 295.36 141.802C296.627 142.069 297.768 142.762 298.599 143.77C299.797 145.248 300.139 147.259 301.037 148.932C301.946 150.617 303.977 152.052 305.634 151.15C307.078 150.367 307.302 148.346 306.949 146.726C306.586 145.117 305.827 143.541 305.955 141.889C306.201 138.748 309.419 136.846 312.252 135.552C315.085 134.259 318.325 132.509 318.774 129.378C318.795 128.77 318.91 128.168 319.116 127.596C319.429 127.085 319.868 126.666 320.388 126.379C328.653 120.824 337.067 115.194 346.518 112.161C347.01 111.998 347.063 112.172 347.566 112.053C348.271 111.64 347.801 110.498 347.127 110.042C346.454 109.585 345.556 109.227 345.385 108.422C345.267 107.835 345.609 107.248 345.695 106.651C345.717 106.289 345.652 105.928 345.505 105.599C345.358 105.269 345.134 104.981 344.852 104.76C344.57 104.539 344.24 104.392 343.889 104.331C343.538 104.27 343.178 104.298 342.84 104.411C342.081 103.39 343.578 102.205 344.797 101.857C348.446 100.841 352.191 100.221 355.969 100.009C356.405 99.9362 356.853 100.013 357.241 100.227C357.519 100.499 357.684 100.87 357.702 101.262C357.72 101.654 357.589 102.038 357.337 102.335C356.823 102.916 356.254 103.444 355.638 103.911C355.024 104.517 354.586 105.282 354.371 106.124C354.156 106.965 354.173 107.851 354.419 108.683C356.397 109.705 358.535 110.759 360.727 110.401C362.908 110.042 364.843 107.542 363.816 105.553C362.865 103.694 359.989 103.27 359.497 101.238C358.92 98.8572 362.234 96.7376 361.486 94.4116C361.165 93.3899 360.16 92.7812 359.39 92.0529C358.484 91.1462 357.868 89.9829 357.622 88.7149C357.376 87.4469 357.512 86.1329 358.011 84.9444C356.759 85.1667 355.474 85.0814 354.261 84.6957C353.048 84.31 351.944 83.635 351.04 82.727C349.372 81.0205 348.047 78.314 345.673 78.401C343.503 78.4662 341.632 81.0422 339.6 80.2596C339.098 80.064 338.574 79.6727 338.093 79.901C337.934 80.0047 337.801 80.1437 337.703 80.3075C337.605 80.4713 337.544 80.6556 337.526 80.8466C337.013 83.3574 337.901 86.2161 336.554 88.39C335.089 90.7486 331.7 91.0747 329.925 93.2051C328.963 94.3573 328.588 95.9116 327.701 97.129C326.814 98.3463 324.943 99.1289 323.874 98.0637C324.397 96.9725 324.541 95.7328 324.28 94.5479C324.02 93.363 323.371 92.3031 322.441 91.5421C321.456 90.885 320.393 90.359 319.276 89.9769C318.029 89.4419 316.843 88.7713 315.737 87.977C315.187 87.6359 314.739 87.1469 314.444 86.5639C314.21 85.8309 314.241 85.0373 314.529 84.3249C315.071 82.755 316.023 81.3649 317.283 80.3039C318.543 79.2429 320.064 78.5512 321.682 78.3032C323.093 78.1076 324.74 78.1728 325.68 77.075C326.172 76.4989 326.429 75.6185 327.156 75.3902C327.614 75.293 328.091 75.3503 328.514 75.5533C330.278 76.1837 332.031 76.8141 333.795 77.4446C334.383 77.7188 335.033 77.8277 335.677 77.7598C335.996 77.7179 336.287 77.5542 336.492 77.3018C336.696 77.0495 336.799 76.7274 336.778 76.4011C336.607 75.5098 335.26 75.0859 335.388 74.1837C335.45 73.889 335.604 73.6223 335.827 73.4229C337.733 71.3609 340.065 69.7528 342.654 68.7137C345.244 67.6746 348.027 67.2301 350.805 67.4121C351.468 68.5316 350.42 69.8468 349.533 70.7925C348.656 71.749 347.95 73.4446 349.02 74.1728C349.451 74.4028 349.933 74.5152 350.42 74.4989C351.72 74.6762 352.984 75.0653 354.162 75.6511C355.99 76.4554 357.787 77.3467 359.54 78.3032C359.282 77.1378 359.326 75.9243 359.668 74.7815C359.861 74.2206 360.253 73.7529 360.767 73.4695C361.281 73.1862 361.88 73.1076 362.448 73.2489C363.496 73.662 364.03 75.075 365.153 75.2054C366.639 75.3793 367.227 73.1402 366.607 71.749C365.987 70.3577 364.747 69.2055 364.65 67.6729C364.575 66.6512 364.96 65.3795 364.159 64.76C363.873 64.5679 363.547 64.4486 363.207 64.4121C356.493 63.1621 349.775 61.9085 343.054 60.6513C341.856 60.4231 340.135 60.597 340.082 61.8252C340.05 62.5209 340.659 63.2056 340.392 63.836C340.103 64.51 339.162 64.4556 338.478 64.6947C337.964 64.9318 337.54 65.3327 337.27 65.8367C337 66.3407 336.898 66.9204 336.981 67.4882C337.164 68.6184 337.595 69.6921 338.243 70.6294C336.928 70.0751 334.95 69.9773 333.635 69.412C333.443 67.864 333.055 66.3477 332.48 64.9012C332.447 64.671 332.365 64.451 332.24 64.2565C332.114 64.062 331.948 63.8979 331.753 63.7756C331.559 63.6533 331.34 63.5759 331.113 63.5488C330.886 63.5217 330.655 63.5455 330.438 63.6187C328.706 63.8904 326.974 64.1513 325.242 64.423C324.807 64.444 324.391 64.608 324.055 64.8904C323.382 65.6186 324.045 66.7816 324.023 67.7816C323.961 68.3408 323.728 68.8662 323.359 69.285C322.989 69.7038 322.5 69.9951 321.96 70.1186C320.872 70.3432 319.749 70.3284 318.667 70.0751C316.24 69.6946 313.824 69.3142 311.397 68.9338C313.539 68.2398 315.444 66.9435 316.892 65.1947C317.854 64.0426 318.368 61.8904 316.978 61.347C316.567 61.2324 316.139 61.1992 315.716 61.2491C312.423 61.2709 309.825 58.4775 306.746 57.2927C305.778 56.9255 304.754 56.7342 303.72 56.7275L300.278 61.0208Z" fill="#4CE715"/>
<path d="M580.797 167.91C580.42 168.425 579.924 168.838 579.354 169.113C578.784 169.387 578.156 169.516 577.525 169.486C574.179 169.193 572.768 164.291 569.453 163.737C569.16 163.66 568.85 163.691 568.577 163.824C568.085 164.095 567.999 164.769 567.967 165.334C567.828 168.139 567.711 171.052 568.79 173.639C570.362 177.421 574.436 180.595 573.58 184.606C568.983 182.443 566.588 177.193 565.508 172.16C564.418 167.128 564.247 161.845 562.301 157.085C560.815 159.008 557.714 157.421 556.367 155.4C555.084 153.487 554.293 151.269 553.053 149.324C551.813 147.389 549.91 145.65 547.643 145.541C545.259 145.433 543.185 147.096 541.367 148.672C539.786 149.859 538.459 151.36 537.465 153.085C536.193 155.693 536.524 158.758 536.46 161.661C536.396 164.791 535.744 168.106 533.637 170.41C531.531 172.704 527.65 173.508 525.33 171.432C524.209 170.243 523.409 168.779 523.01 167.182C520.488 159.709 518.389 152.095 516.724 144.378C516.339 146.139 514.81 148.411 513.356 147.378C513.031 147.097 512.768 146.749 512.586 146.356C509.871 141.694 504.856 138.889 499.778 137.204C494.71 135.531 489.375 134.748 484.361 132.9C481.549 131.862 478.863 130.502 476.353 128.846C475.716 129.8 475.344 130.912 475.276 132.064C475.208 133.215 475.447 134.364 475.968 135.389C476.532 136.392 477.406 137.178 478.453 137.624C479.501 138.07 480.665 138.152 481.763 137.857C482.875 137.487 483.816 136.704 484.917 136.313C486.018 135.933 487.504 136.118 487.985 137.204C488.456 138.237 487.75 139.487 488.103 140.574C488.627 142.215 491.075 142.346 491.931 143.846C492.182 144.44 492.24 145.1 492.095 145.73C491.951 146.359 491.612 146.926 491.129 147.346C490.145 148.161 489.059 148.841 487.9 149.367C484.308 151.4 481.752 154.867 478.609 157.563C475.466 160.269 471.029 162.237 467.287 160.508C468.174 155.911 462.797 152.541 461.802 147.965C461.471 146.454 461.642 144.857 461.182 143.389C460.509 141.259 458.648 139.802 457.13 138.194C455.286 136.219 453.849 133.889 452.903 131.341C451.957 128.793 451.523 126.078 451.624 123.357C451.71 121.466 452.052 119.542 451.624 117.694C451.207 115.857 449.7 114.074 447.84 114.15C443.595 114.346 438.239 114.672 436.015 110.987C435.213 109.672 434.871 107.748 436.026 106.738C436.838 106.031 438.036 106.096 439.094 106.205C442.291 106.52 445.477 106.846 448.673 107.161C450.908 107.379 453.324 107.564 455.249 106.379C457.173 105.194 458.007 102.031 456.221 100.629C454.928 99.6073 452.597 99.6616 452.212 98.042C451.902 96.6834 453.378 95.1508 452.576 94.0095C452.009 93.2052 450.726 93.4226 449.946 94.0312C449.265 94.7501 448.524 95.4083 447.733 95.9986C446.204 96.8029 444.386 96.0312 442.74 95.5095C441.093 94.9878 438.891 94.9443 438.1 96.4986C437.202 98.2268 438.88 100.509 438.004 102.249C436.827 104.542 432.872 103.238 431.225 105.216C429.343 107.477 432.508 110.868 431.877 113.759C431.065 114.169 430.162 114.357 429.257 114.306C428.352 114.254 427.476 113.965 426.713 113.466C425.965 112.948 425.369 112.234 424.989 111.4C424.609 110.565 424.458 109.641 424.554 108.727C424.703 107.422 425.377 106.085 424.928 104.857C424.444 103.909 423.644 103.165 422.672 102.759C419.572 101.009 416.471 99.2667 413.371 97.5312C412.505 99.1616 413.595 101.172 414.964 102.401C416.321 103.618 418.032 104.542 418.93 106.151C419.499 107.266 419.627 108.559 419.289 109.767C418.952 110.975 418.173 112.006 417.113 112.651C416.978 112.744 416.826 112.808 416.665 112.836C416.504 112.864 416.34 112.856 416.182 112.814C416.034 112.725 415.905 112.607 415.802 112.467C415.699 112.327 415.625 112.168 415.584 111.998C413.948 107.727 411.478 103.52 407.544 101.292C403.599 99.0529 397.943 99.5203 395.356 103.27C394.746 104.162 394.329 105.183 393.795 106.129C390.962 111.14 384.867 113.509 379.18 113.357C378.623 113.393 378.069 113.261 377.587 112.977C376.667 112.335 376.71 110.966 376.849 109.835C377.052 108.238 377.245 106.651 377.448 105.053C377.453 104.077 377.824 103.14 378.485 102.433C379.543 101.585 381.061 102.118 382.408 102.096C383.425 102.05 384.403 101.686 385.209 101.054C386.014 100.422 386.608 99.5521 386.91 98.5638C387.181 97.5665 387.178 96.5129 386.903 95.5168C386.628 94.5206 386.091 93.6199 385.349 92.9117C384.739 92.3248 383.916 91.5857 384.237 90.7922C384.367 90.5736 384.543 90.3865 384.751 90.2439C384.96 90.1012 385.197 90.0064 385.445 89.9661C387.85 89.2596 390.406 89.0748 392.768 88.227C395.142 87.3901 397.44 85.6727 398.007 83.1836C398.178 82.4227 398.253 81.4989 398.927 81.1184C399.267 80.9797 399.629 80.906 399.996 80.901C401.281 80.7137 402.451 80.0445 403.276 79.0248C404.101 78.0052 404.521 76.7087 404.454 75.3903C405.587 74.5859 407.18 75.1838 408.281 76.0424C409.372 76.9011 410.345 78.0315 411.681 78.4011C414.172 79.0967 416.578 76.8468 419.165 76.8359C420.256 76.8359 421.378 77.2272 422.394 76.8468C423.431 76.4663 424.051 75.4229 424.842 74.6512C425.644 73.8686 427.034 73.4012 427.772 74.2381C427.558 72.662 427.355 71.0969 427.141 69.5317C428.401 69.8542 429.713 69.8988 430.991 69.6626C432.269 69.4263 433.483 68.9147 434.55 68.1621C431.856 67.2382 429.172 66.3143 426.478 65.3904C426.195 65.3195 425.934 65.1775 425.719 64.9774C425.131 64.3361 425.719 63.3361 426.189 62.6078C427.333 60.8579 427.526 57.9775 425.644 57.1079C424.361 56.5101 422.897 57.2275 421.667 57.9231C419.7 59.0318 417.733 60.1514 415.765 61.2601C415.584 62.4013 416.952 63.0535 417.797 63.8144C418.312 64.2785 418.676 64.8902 418.842 65.569C419.008 66.2477 418.968 66.9617 418.728 67.617C418.487 68.2722 418.057 68.838 417.494 69.2399C416.931 69.6419 416.261 69.861 415.573 69.8686C415.96 70.3828 416.23 70.9788 416.361 71.6126C416.492 72.2464 416.483 72.9022 416.332 73.5316C415.017 73.6294 413.691 73.7272 412.366 73.8251C412.145 73.8697 411.919 73.8696 411.699 73.8249C411.478 73.7801 411.269 73.6915 411.083 73.5642C410.655 73.1838 410.719 72.5099 410.612 71.9447C410.436 71.2691 410.065 70.6626 409.547 70.2035C409.028 69.7444 408.387 69.4536 407.704 69.3686C406.342 69.2129 404.963 69.3423 403.652 69.749C403.082 69.9532 402.458 69.9377 401.899 69.7056C401.581 69.4921 401.341 69.1791 401.215 68.8143C400.982 68.0689 400.942 67.2752 401.1 66.5097C401.257 65.7443 401.606 65.033 402.113 64.4448C403.139 63.2857 404.27 62.2267 405.491 61.2818C408.257 58.8195 410.291 55.6191 411.361 52.0428C413.542 51.1081 415.798 49.8472 417.989 48.9124C419.751 48.0823 421.598 47.4517 423.495 47.032C425.281 46.7547 427.091 46.6673 428.894 46.7712C431.353 46.8146 433.823 46.8581 436.282 46.9125C438.477 46.8187 440.67 47.1393 442.75 47.8581C444.771 48.7059 446.557 50.5429 446.695 52.7602C446.738 53.0129 446.715 53.2723 446.631 53.5139C446.547 53.7555 446.404 53.9712 446.214 54.1406C445.93 54.3002 445.608 54.3755 445.284 54.358C443.242 54.4232 442.376 54.945 440.334 55.021C441.628 56.4232 443.082 57.9014 444.963 58.1514C448.278 58.5862 450.662 55.0971 452.191 52.0646C452.245 52.8365 452.595 53.5561 453.164 54.0699C453.733 54.5836 454.477 54.8509 455.238 54.8145C456.057 54.6713 456.839 54.3607 457.536 53.9015C464.113 50.2478 471.479 48.313 478.973 48.2711C478.899 47.6944 479.039 47.1104 479.365 46.6324C479.691 46.1544 480.18 45.8165 480.737 45.6842C482.266 45.3799 483.634 46.7168 484.372 48.1081C485.099 49.4994 485.558 51.108 486.734 52.1515C487.9 53.1949 490.156 53.1406 490.615 51.6407C491.064 50.195 489.578 48.9559 488.349 48.0972C487.109 47.2494 485.815 45.6734 486.649 44.4125C492.935 42.9886 499.275 41.5756 505.722 41.293C506.818 41.3267 507.909 41.1344 508.93 40.7277C509.435 40.5101 509.856 40.1291 510.126 39.6437C510.397 39.1582 510.502 38.5956 510.426 38.043C509.02 38.3768 507.547 38.2781 506.196 37.7594C504.844 37.2408 503.675 36.3256 502.836 35.13C509.454 34.5757 516.382 34.0866 522.743 35.5974L528.313 40.4016C527.255 41.5212 525.843 42.5755 526.613 43.6951C526.867 43.9522 527.175 44.1474 527.514 44.266C527.853 44.3846 528.214 44.4235 528.57 44.3799C529.917 44.4016 531.264 44.4342 532.6 44.4342C560.254 71.3265 577.275 107.575 580.455 146.346C578.21 146.259 576.146 149.15 576.435 151.672C576.777 154.596 578.851 156.943 580.337 159.465C580.583 159.875 580.804 160.3 581 160.737L580.797 167.91Z" fill="#4CE715"/>
<path d="M373.006 317.05C387.922 317.05 400.014 304.756 400.014 289.592C400.014 274.427 387.922 262.133 373.006 262.133C358.089 262.133 345.997 274.427 345.997 289.592C345.997 304.756 358.089 317.05 373.006 317.05Z" fill="#2F2E41"/>
<path d="M360.113 303.464C360.113 303.464 351.316 323.267 348.802 323.906C346.289 324.545 369.538 336.044 369.538 336.044C369.538 336.044 373.937 311.768 375.822 310.491C377.707 309.213 360.113 303.464 360.113 303.464Z" fill="#FFB9B9"/>
<path d="M307.959 465.726L291.621 512.361L309.215 519.389L339.377 458.7L307.959 465.726Z" fill="#FFB9B9"/>
<path d="M365.14 467.004C365.14 467.004 397.815 513.639 399.7 514.278C401.585 514.917 414.781 503.418 414.781 503.418C414.781 503.418 398.443 463.171 393.416 461.255C388.389 459.338 365.14 467.004 365.14 467.004Z" fill="#FFB9B9"/>
<path d="M289.108 504.056L263.345 572.411C263.345 572.411 265.23 576.244 263.345 576.883C261.46 577.522 257.061 587.743 257.061 588.382C257.061 589.021 252.663 589.66 252.663 591.576C252.663 593.493 248.892 608.825 248.892 608.825C248.892 608.825 255.804 624.157 260.203 619.685C264.602 615.213 266.487 606.269 266.487 606.269L272.77 589.66C272.77 589.66 272.142 580.716 276.54 579.438C280.939 578.161 283.452 562.19 283.452 562.19C283.452 562.19 290.364 555.163 291.621 553.246C292.878 551.33 314.871 517.472 312.986 516.833C311.1 516.194 289.108 504.056 289.108 504.056Z" fill="#523939"/>
<path d="M395.93 513L414.781 500.223C414.781 500.223 447.456 560.912 447.456 562.19C447.456 563.468 446.199 567.301 447.456 568.578C448.712 569.856 459.395 590.299 466.307 592.215C473.219 594.132 474.475 601.798 468.82 603.075C463.165 604.353 455.624 607.547 453.739 603.075C452.637 600.444 451.378 597.884 449.969 595.409C449.969 595.409 443.685 597.326 443.057 596.048C442.332 594.166 441.703 592.247 441.172 590.299C441.172 590.299 436.145 581.355 436.145 578.161C436.145 574.967 433.003 574.328 433.003 574.328C433.003 574.328 426.091 557.718 421.693 555.163C417.294 552.608 413.524 539.831 413.524 539.831L395.93 513Z" fill="#573B3B"/>
<path d="M373.309 318.157C383.373 318.157 391.531 309.862 391.531 299.631C391.531 289.399 383.373 281.105 373.309 281.105C363.245 281.105 355.086 289.399 355.086 299.631C355.086 309.862 363.245 318.157 373.309 318.157Z" fill="#FFB9B9"/>
<path d="M319.269 412.065C319.269 412.065 292.299 484.905 296.07 484.905C299.84 484.905 404.142 487.212 407.284 482.101C410.426 476.991 380.221 426.119 378.964 425.48C377.707 424.841 319.269 412.065 319.269 412.065Z" fill="#573B3B"/>
<path d="M292.249 260.023L273.399 230.637C273.399 230.637 278.06 199.811 271.777 205.56C265.493 211.309 263.504 234.528 263.504 234.528L285.337 268.328L292.249 260.023Z" fill="#FFB9B9"/>
<path d="M463.165 313.685L480.131 312.407C480.131 312.407 500.238 290.687 501.495 297.714C502.752 304.741 485.158 320.073 485.158 320.073L461.908 322.629L463.165 313.685Z" fill="#FFB9B9"/>
<path d="M339.377 320.073V313.685C339.377 313.685 323.039 302.825 323.668 300.908C324.296 298.992 322.411 297.714 322.411 297.714C322.411 297.714 320.526 295.159 320.526 294.52C320.526 293.881 318.012 293.242 318.012 293.242L302.303 274.716C302.303 274.716 293.506 256.829 291.621 257.468C289.736 258.107 279.682 261.94 280.939 264.495C282.196 267.05 317.384 321.99 317.384 321.99C317.384 321.99 319.269 334.128 322.411 334.128C325.553 334.128 339.377 320.073 339.377 320.073Z" fill="#785858"/>
<path d="M381.477 327.739C381.477 327.739 395.301 327.1 395.93 327.739C396.558 328.378 405.355 327.739 405.355 327.739C405.355 327.739 429.233 321.99 431.118 320.073C433.003 318.157 464.421 309.852 465.678 313.685C466.935 317.518 470.077 325.184 466.935 326.462C463.793 327.739 378.964 349.459 378.964 349.459L381.477 327.739Z" fill="#785858"/>
<path d="M363.558 272.054C369.73 272.054 374.734 266.967 374.734 260.692C374.734 254.417 369.73 249.33 363.558 249.33C357.385 249.33 352.382 254.417 352.382 260.692C352.382 266.967 357.385 272.054 363.558 272.054Z" fill="#2F2E41"/>
<path d="M348.657 254.538C348.657 251.729 349.68 249.02 351.529 246.933C353.378 244.847 355.921 243.53 358.668 243.237C358.282 243.196 357.893 243.176 357.504 243.176C354.54 243.176 351.698 244.373 349.602 246.503C347.506 248.634 346.328 251.524 346.328 254.538C346.328 257.551 347.506 260.441 349.602 262.572C351.698 264.703 354.54 265.9 357.504 265.9C357.893 265.899 358.282 265.879 358.668 265.838C355.921 265.545 353.378 264.229 351.529 262.142C349.68 260.055 348.657 257.346 348.657 254.538V254.538Z" fill="#2F2E41"/>
<path d="M376.148 295.132C386.435 295.132 394.774 290.045 394.774 283.77C394.774 277.495 386.435 272.408 376.148 272.408C365.86 272.408 357.521 277.495 357.521 283.77C357.521 290.045 365.86 295.132 376.148 295.132Z" fill="#2F2E41"/>
<path d="M354.772 313.366C354.772 313.366 349.117 317.837 347.86 318.476C346.603 319.115 339.063 312.727 337.806 312.727C336.549 312.727 320.212 331.892 320.212 331.892C320.212 331.892 323.248 335.447 320.212 353.612C319.073 360.424 316.814 389.549 316.814 393.382C316.814 397.215 304.503 406.635 315.813 414.94C327.124 423.244 381.163 432.188 381.791 427.077C382.42 421.967 375.508 408.551 378.65 402.163C381.792 395.775 381.791 372.138 381.791 372.138L385.562 347.224L388.703 327.42C388.703 327.42 373.937 323.267 372.68 323.267C371.423 323.267 365.768 332.211 354.772 313.366Z" fill="#785858"/>
</g>
<defs>
<clipPath id="clip0_0:1">
<rect width="581" height="632" fill="white"/>
</clipPath>
</defs>
</svg>
